<?xml version="1.0" encoding="us-ascii" standalone="no"?><svg xmlns="http://www.w3.org/2000/svg" xmlns:xlink="http://www.w3.org/1999/xlink" contentStyleType="text/css" height="411px" preserveAspectRatio="none" style="width:694px;height:411px;background:#FFFFFF;" version="1.1" viewBox="0 0 694 411" width="694px" zoomAndPan="magnify"><defs/><g><!--cluster Version 1--><g id="cluster_Version 1"><rect fill="none" height="398" rx="2.5" ry="2.5" style="stroke:#181818;stroke-width:1.0;" width="253.96" x="282" y="7"/><text fill="#000000" font-family="sans-serif" font-size="14" font-weight="bold" lengthAdjust="spacing" textLength="76" x="370.98" y="21.9951">Version 1</text></g><g id="elem_UC1"><ellipse cx="408.9811" cy="140.9962" fill="#F1F1F1" rx="110.9811" ry="24.5962" style="stroke:#181818;stroke-width:0.5;"/><text fill="#000000" font-family="sans-serif" font-size="14" lengthAdjust="spacing" textLength="188" x="314.9811" y="143.8429">Cr&#233;diter/d&#233;biter un compte</text></g><g id="elem_UC2"><ellipse cx="408.9835" cy="219.0047" fill="#F1F1F1" rx="79.3735" ry="18.2747" style="stroke:#181818;stroke-width:0.5;"/><text fill="#000000" font-family="sans-serif" font-size="14" lengthAdjust="spacing" textLength="117" x="348.5776" y="222.4548">Cr&#233;er un compte</text></g><g id="elem_UC3"><ellipse cx="408.9771" cy="292.9954" fill="#F1F1F1" rx="92.7771" ry="20.9554" style="stroke:#181818;stroke-width:0.5;"/><text fill="#000000" font-family="sans-serif" font-size="14" lengthAdjust="spacing" textLength="148" x="334.9771" y="295.8421">Effectuer un virement</text></g><g id="elem_UC4"><ellipse cx="408.9798" cy="369" fill="#F1F1F1" rx="86.5998" ry="19.72" style="stroke:#181818;stroke-width:0.5;"/><text fill="#000000" font-family="sans-serif" font-size="14" lengthAdjust="spacing" textLength="134" x="341.9798" y="371.8466">Cl&#244;turer un compte</text></g><g id="elem_UC5"><ellipse cx="408.9798" cy="62" fill="#F1F1F1" rx="86.5998" ry="19.72" style="stroke:#181818;stroke-width:0.5;"/><text fill="#000000" font-family="sans-serif" font-size="14" lengthAdjust="spacing" textLength="134" x="341.9798" y="64.8466">G&#233;rer les employ&#233;s</text></g><!--entity Guichetier--><g id="elem_Guichetier"><ellipse cx="41.5" cy="192.35" fill="#F1F1F1" rx="8" ry="8" style="stroke:#181818;stroke-width:0.5;"/><path d="M41.5,200.35 L41.5,227.35 M28.5,208.35 L54.5,208.35 M41.5,227.35 L28.5,242.35 M41.5,227.35 L54.5,242.35 " fill="none" style="stroke:#181818;stroke-width:0.5;"/><text fill="#000000" font-family="sans-serif" font-size="14" lengthAdjust="spacing" textLength="71" x="6" y="256.8451">Guichetier</text></g><!--entity ChefAgence--><g id="elem_ChefAgence"><ellipse cx="187.5" cy="30.35" fill="#F1F1F1" rx="8" ry="8" style="stroke:#181818;stroke-width:0.5;"/><path d="M187.5,38.35 L187.5,65.35 M174.5,46.35 L200.5,46.35 M187.5,65.35 L174.5,80.35 M187.5,65.35 L200.5,80.35 " fill="none" style="stroke:#181818;stroke-width:0.5;"/><text fill="#000000" font-family="sans-serif" font-size="14" lengthAdjust="spacing" textLength="101" x="137" y="94.8451">Chef d'Agence</text></g><g id="elem_GMN16"><path d="M579.96,49.43 L579.96,58 L495.87,62 L579.96,66 L579.96,74.5628 A0,0 0 0 0 579.96,74.5628 L687.96,74.5628 A0,0 0 0 0 687.96,74.5628 L687.96,59.43 L677.96,49.43 L579.96,49.43 A0,0 0 0 0 579.96,49.43 " fill="#FEFFDD" style="stroke:#181818;stroke-width:0.5;"/><path d="M677.96,49.43 L677.96,59.43 L687.96,59.43 L677.96,49.43 " fill="#FEFFDD" style="stroke:#181818;stroke-width:0.5;"/><text fill="#000000" font-family="sans-serif" font-size="13" lengthAdjust="spacing" textLength="87" x="585.96" y="66.4969">Faire le CRUD</text></g><!--reverse link Guichetier to ChefAgence--><g id="link_Guichetier_ChefAgence"><path d="M88.5882,170.1563 C111.4582,144.4263 129.5,124.13 152.37,98.4 " fill="none" id="Guichetier-backto-ChefAgence" style="stroke:#181818;stroke-width:1.0;"/><polygon fill="none" points="76.63,183.61,93.0728,174.1424,84.1037,166.1703,76.63,183.61" style="stroke:#181818;stroke-width:1.0;"/></g><!--link Guichetier to UC1--><g id="link_Guichetier_UC1"><path d="M77.32,211.31 C95.09,206.05 117.1,199.82 137,195 C198.19,180.19 261.9716,167.4697 315.3416,157.5197 " fill="none" id="Guichetier-to-UC1" style="stroke:#181818;stroke-width:1.0;"/><polygon fill="#181818" points="321.24,156.42,311.6593,154.1372,316.3247,157.3364,313.1256,162.0017,321.24,156.42" style="stroke:#181818;stroke-width:1.0;"/></g><!--link Guichetier to UC2--><g id="link_Guichetier_UC2"><path d="M77.21,221.72 C134.68,221.24 244.9802,220.3391 323.2002,219.6991 " fill="none" id="Guichetier-to-UC2" style="stroke:#181818;stroke-width:1.0;"/><polygon fill="#181818" points="329.2,219.65,320.1676,215.7238,324.2002,219.6909,320.233,223.7235,329.2,219.65" style="stroke:#181818;stroke-width:1.0;"/></g><!--link Guichetier to UC3--><g id="link_Guichetier_UC3"><path d="M77.21,228.74 C136.73,240.3 253.46,262.9863 331.53,278.1463 " fill="none" id="Guichetier-to-UC3" style="stroke:#181818;stroke-width:1.0;"/><polygon fill="#181818" points="337.42,279.29,329.3475,273.6477,332.5117,278.3369,327.8225,281.501,337.42,279.29" style="stroke:#181818;stroke-width:1.0;"/></g><!--link Guichetier to UC4--><g id="link_Guichetier_UC4"><path d="M77.42,239.22 C95.21,247.94 117.21,258.63 137,268 C197.58,296.67 211.13,307.79 274,331 C298.16,339.92 319.6089,346.4206 343.1889,352.8106 " fill="none" id="Guichetier-to-UC4" style="stroke:#181818;stroke-width:1.0;"/><polygon fill="#181818" points="348.98,354.38,341.3395,348.1652,344.1541,353.0722,339.2471,355.8867,348.98,354.38" style="stroke:#181818;stroke-width:1.0;"/></g><!--link ChefAgence to UC5--><g id="link_ChefAgence_UC5"><path d="M238.3,60.45 C263.09,60.68 287.7703,60.9051 316.1903,61.1651 " fill="none" id="ChefAgence-to-UC5" style="stroke:#181818;stroke-width:1.0;"/><polygon fill="#181818" points="322.19,61.22,313.227,57.1378,317.1902,61.1743,313.1538,65.1375,322.19,61.22" style="stroke:#181818;stroke-width:1.0;"/></g><!--SRC=[RP7DQiGW483lFiMGovv2sRzBAOMIRVTUsDwj6HF1wABZGcdxGBdt3NonQYCiQTQJVlCvFwfH4f05fxgUe5KE1Ibh6EE2h8DZKA97KkWAg9eU9RIhfmwDm0guXqoc8sDN7nw-wdeMowcvwJH2zOREfogmhk2JGLh1e-0-HHeNnrOHkhisZkzv0y60iCEPfcgdPhsySSFQpArdALFvC8cNDEQ0Xegw_PTGnnyAxaREtLmynZ5R6ZtWSDRs8uw-c7lsFNkCkdxywto1Dh1asoNQiUjB5hHdZ1bBMBxEoipkuOMduL9FqBoU3hy0]--></g></svg>