<?xml version="1.0" encoding="us-ascii" standalone="no"?><svg xmlns="http://www.w3.org/2000/svg" xmlns:xlink="http://www.w3.org/1999/xlink" contentStyleType="text/css" height="446px" preserveAspectRatio="none" style="width:790px;height:446px;background:#FFFFFF;" version="1.1" viewBox="0 0 790 446" width="790px" zoomAndPan="magnify"><defs/><g><!--cluster Version 2--><g id="cluster_Version 2"><rect fill="none" height="433" rx="2.5" ry="2.5" style="stroke:#181818;stroke-width:1.0;" width="299.99" x="282" y="7"/><text fill="#000000" font-family="sans-serif" font-size="14" font-weight="bold" lengthAdjust="spacing" textLength="76" x="393.995" y="21.9951">Version 2</text></g><g id="elem_UC1"><ellipse cx="431.9971" cy="307.9974" fill="#F1F1F1" rx="101.3371" ry="22.6674" style="stroke:#181818;stroke-width:0.5;"/><text fill="#000000" font-family="sans-serif" font-size="14" lengthAdjust="spacing" textLength="167" x="348.4971" y="310.8441">G&#233;n&#233;rer relev&#233; mensuel</text></g><g id="elem_UC2"><ellipse cx="431.9969" cy="394.9994" fill="#F1F1F1" rx="133.9969" ry="29.1994" style="stroke:#181818;stroke-width:0.5;"/><text fill="#000000" font-family="sans-serif" font-size="14" lengthAdjust="spacing" textLength="237" x="313.4969" y="397.8461">G&#233;rer pr&#233;l&#232;vements automatiques</text></g><g id="elem_UC3"><ellipse cx="431.9952" cy="225.003" fill="#F1F1F1" rx="113.7652" ry="25.153" style="stroke:#181818;stroke-width:0.5;"/><text fill="#000000" font-family="sans-serif" font-size="14" lengthAdjust="spacing" textLength="194" x="334.9952" y="227.8497">Effectuer d&#233;bit exceptionnel</text></g><g id="elem_UC4"><ellipse cx="431.9951" cy="60.001" fill="#F1F1F1" rx="78.1551" ry="18.031" style="stroke:#181818;stroke-width:0.5;"/><text fill="#000000" font-family="sans-serif" font-size="14" lengthAdjust="spacing" textLength="114" x="372.6059" y="63.5866">Simuler emprunt</text></g><g id="elem_UC5"><ellipse cx="432.0042" cy="138.9988" fill="#F1F1F1" rx="117.4942" ry="25.8988" style="stroke:#181818;stroke-width:0.5;"/><text fill="#000000" font-family="sans-serif" font-size="14" lengthAdjust="spacing" textLength="202" x="331.0042" y="141.8455">Simuler assurance d'emprunt</text></g><!--entity Guichetier--><g id="elem_Guichetier"><ellipse cx="41.5" cy="278.35" fill="#F1F1F1" rx="8" ry="8" style="stroke:#181818;stroke-width:0.5;"/><path d="M41.5,286.35 L41.5,313.35 M28.5,294.35 L54.5,294.35 M41.5,313.35 L28.5,328.35 M41.5,313.35 L54.5,328.35 " fill="none" style="stroke:#181818;stroke-width:0.5;"/><text fill="#000000" font-family="sans-serif" font-size="14" lengthAdjust="spacing" textLength="71" x="6" y="342.8451">Guichetier</text></g><!--entity ChefAgence--><g id="elem_ChefAgence"><ellipse cx="187.5" cy="148.35" fill="#F1F1F1" rx="8" ry="8" style="stroke:#181818;stroke-width:0.5;"/><path d="M187.5,156.35 L187.5,183.35 M174.5,164.35 L200.5,164.35 M187.5,183.35 L174.5,198.35 M187.5,183.35 L200.5,198.35 " fill="none" style="stroke:#181818;stroke-width:0.5;"/><text fill="#000000" font-family="sans-serif" font-size="14" lengthAdjust="spacing" textLength="101" x="137" y="212.8451">Chef d'Agence</text></g><g id="elem_GMN16"><path d="M656.99,295.43 L656.99,304 L533.52,308 L656.99,312 L656.99,320.5628 A0,0 0 0 0 656.99,320.5628 L752.99,320.5628 A0,0 0 0 0 752.99,320.5628 L752.99,305.43 L742.99,295.43 L656.99,295.43 A0,0 0 0 0 656.99,295.43 " fill="#FEFFDD" style="stroke:#181818;stroke-width:0.5;"/><path d="M742.99,295.43 L742.99,305.43 L752.99,305.43 L742.99,295.43 " fill="#FEFFDD" style="stroke:#181818;stroke-width:0.5;"/><text fill="#000000" font-family="sans-serif" font-size="13" lengthAdjust="spacing" textLength="75" x="662.99" y="312.4969">Format PDF</text></g><g id="elem_GMN19"><path d="M650.99,382.43 L650.99,391 L566.11,395 L650.99,399 L650.99,407.5628 A0,0 0 0 0 650.99,407.5628 L758.99,407.5628 A0,0 0 0 0 758.99,407.5628 L758.99,392.43 L748.99,382.43 L650.99,382.43 A0,0 0 0 0 650.99,382.43 " fill="#FEFFDD" style="stroke:#181818;stroke-width:0.5;"/><path d="M748.99,382.43 L748.99,392.43 L758.99,392.43 L748.99,382.43 " fill="#FEFFDD" style="stroke:#181818;stroke-width:0.5;"/><text fill="#000000" font-family="sans-serif" font-size="13" lengthAdjust="spacing" textLength="87" x="656.99" y="399.4969">Faire le CRUD</text></g><g id="elem_GMN22"><path d="M625.99,204.87 L625.99,221 L545.96,225 L625.99,229 L625.99,245.1356 A0,0 0 0 0 625.99,245.1356 L783.99,245.1356 A0,0 0 0 0 783.99,245.1356 L783.99,214.87 L773.99,204.87 L625.99,204.87 A0,0 0 0 0 625.99,204.87 " fill="#FEFFDD" style="stroke:#181818;stroke-width:0.5;"/><path d="M773.99,204.87 L773.99,214.87 L783.99,214.87 L773.99,204.87 " fill="#FEFFDD" style="stroke:#181818;stroke-width:0.5;"/><text fill="#000000" font-family="sans-serif" font-size="13" lengthAdjust="spacing" textLength="93" x="631.99" y="221.9369">D&#233;biter m&#234;me</text><text fill="#000000" font-family="sans-serif" font-size="13" lengthAdjust="spacing" textLength="137" x="631.99" y="237.0697">avec solde insuffisant</text></g><g id="elem_GMN25"><path d="M650.49,39.87 L650.49,56 L510.29,60 L650.49,64 L650.49,80.1356 A0,0 0 0 0 650.49,80.1356 L759.49,80.1356 A0,0 0 0 0 759.49,80.1356 L759.49,49.87 L749.49,39.87 L650.49,39.87 A0,0 0 0 0 650.49,39.87 " fill="#FEFFDD" style="stroke:#181818;stroke-width:0.5;"/><path d="M749.49,39.87 L749.49,49.87 L759.49,49.87 L749.49,39.87 " fill="#FEFFDD" style="stroke:#181818;stroke-width:0.5;"/><text fill="#000000" font-family="sans-serif" font-size="13" lengthAdjust="spacing" textLength="88" x="656.49" y="56.9369">Estimer co&#251;ts</text><text fill="#000000" font-family="sans-serif" font-size="13" lengthAdjust="spacing" textLength="82" x="656.49" y="72.0697">et conditions</text></g><g id="elem_GMN28"><path d="M650.49,118.87 L650.49,135 L549.89,139 L650.49,143 L650.49,159.1356 A0,0 0 0 0 650.49,159.1356 L759.49,159.1356 A0,0 0 0 0 759.49,159.1356 L759.49,128.87 L749.49,118.87 L650.49,118.87 A0,0 0 0 0 650.49,118.87 " fill="#FEFFDD" style="stroke:#181818;stroke-width:0.5;"/><path d="M749.49,118.87 L749.49,128.87 L759.49,128.87 L749.49,118.87 " fill="#FEFFDD" style="stroke:#181818;stroke-width:0.5;"/><text fill="#000000" font-family="sans-serif" font-size="13" lengthAdjust="spacing" textLength="88" x="656.49" y="135.9369">Estimer co&#251;ts</text><text fill="#000000" font-family="sans-serif" font-size="13" lengthAdjust="spacing" textLength="82" x="656.49" y="151.0697">et conditions</text></g><!--reverse link Guichetier to ChefAgence--><g id="link_Guichetier_ChefAgence"><path d="M90.7233,264.4709 C110.7033,246.4409 122.57,235.72 143.73,216.61 " fill="none" id="Guichetier-backto-ChefAgence" style="stroke:#181818;stroke-width:1.0;"/><polygon fill="none" points="77.36,276.53,94.743,268.9253,86.7036,260.0165,77.36,276.53" style="stroke:#181818;stroke-width:1.0;"/></g><!--link Guichetier to UC1--><g id="link_Guichetier_UC1"><path d="M77.32,308 C133.75,308 241.26,308 324.52,308 " fill="none" id="Guichetier-to-UC1" style="stroke:#181818;stroke-width:1.0;"/><polygon fill="#181818" points="330.52,308,321.52,304,325.52,308,321.52,312,330.52,308" style="stroke:#181818;stroke-width:1.0;"/></g><!--link Guichetier to UC2--><g id="link_Guichetier_UC2"><path d="M77.32,315.8 C135.33,328.79 247.815,353.9789 331.595,372.7389 " fill="none" id="Guichetier-to-UC2" style="stroke:#181818;stroke-width:1.0;"/><polygon fill="#181818" points="337.45,374.05,329.5415,368.1801,332.5708,372.9575,327.7935,375.9868,337.45,374.05" style="stroke:#181818;stroke-width:1.0;"/></g><!--link ChefAgence to UC3--><g id="link_ChefAgence_UC3"><path d="M238.45,187.68 C269.23,193.65 303.6296,200.3185 339.3896,207.2485 " fill="none" id="ChefAgence-to-UC3" style="stroke:#181818;stroke-width:1.0;"/><polygon fill="#181818" points="345.28,208.39,337.2054,202.7508,340.3713,207.4387,335.6834,210.6047,345.28,208.39" style="stroke:#181818;stroke-width:1.0;"/></g><!--link ChefAgence to UC4--><g id="link_ChefAgence_UC4"><path d="M219.98,139.74 C234.83,124 253.73,106.94 274,96 C300.58,81.65 326.7696,74.0989 354.9996,68.8889 " fill="none" id="ChefAgence-to-UC4" style="stroke:#181818;stroke-width:1.0;"/><polygon fill="#181818" points="360.9,67.8,351.3235,65.4998,355.983,68.7075,352.7754,73.367,360.9,67.8" style="stroke:#181818;stroke-width:1.0;"/></g><!--link ChefAgence to UC5--><g id="link_ChefAgence_UC5"><path d="M238.45,169.97 C266.6,165.44 296.7659,160.5812 330.0859,155.2312 " fill="none" id="ChefAgence-to-UC5" style="stroke:#181818;stroke-width:1.0;"/><polygon fill="#181818" points="336.01,154.28,326.4897,151.7574,331.0732,155.0727,327.758,159.6562,336.01,154.28" style="stroke:#181818;stroke-width:1.0;"/></g><!--SRC=[XP6_JiCm4CPtFyKf2rC6qdQf41BglnM1ojJ5E9VMacCN-rmX0Uz3U0L6lnYN4e4Y8v79-Uxx-NpV6Mm8o87N-mD1hJqgqiuA8HKv3vkerG59en-4Od701kgBcprQXGN80Bto_Il4hn-kNijoLEklbdPl48e7z86xG5N0Ym3-Oa0b0rSsgREfyynxD7XA7RHeGqHpRhLTN6RstdlqgJFf_OHifW0oacibwQU8OU2gCRTg6dvDPBHEtQCcm6U5ntvo-zDgCaRkTHiD0zWUVRGqcAP_csG8qKiUcwCQ0pFnDegfBA_FOsLI9Nx36wH9BarpQIQ4TOJ3IbtJNp-7jVCS2TmkrrcrughapGElPd6tNMQ6oHoMvvZuSMtwQ75dvGaL16Tg1CtxQHeTfAMCdCvX5KYt32gNFYdiB18VRQtxi4C6pFu1lW00]--></g></svg>